<svg id="line_color" height="512" viewBox="0 0 74 74" width="512" xmlns="http://www.w3.org/2000/svg" data-name="line color"><circle cx="37" cy="37" fill="#e1e6e9" r="34"/><path d="m71 37.5a33.921 33.921 0 0 1 -11.88 25.82 34 34 0 0 0 -47.14-48.84 34 34 0 0 1 59.02 23.02z" fill="#d5d6db"/><g fill="#323c6b"><path d="m15.875 67.826a.5.5 0 0 1 -.287-.091 37.924 37.924 0 0 1 -7.854-7.358.5.5 0 0 1 .782-.625 36.865 36.865 0 0 0 7.646 7.164.5.5 0 0 1 -.287.91z"/><path d="m6.459 58.333a.5.5 0 0 1 -.433-.249q-.216-.37-.423-.744a.5.5 0 1 1 .873-.487q.2.366.415.73a.5.5 0 0 1 -.182.683.494.494 0 0 1 -.25.067z"/><path d="m61.687 10.11a.5.5 0 0 1 -.3-.1q-.521-.4-1.05-.786a.5.5 0 1 1 .587-.809q.541.393 1.072.8a.5.5 0 0 1 -.3.9z"/><path d="m70.735 22.333a.5.5 0 0 1 -.456-.293 36.528 36.528 0 0 0 -6.726-10.04.5.5 0 1 1 .727-.686 37.53 37.53 0 0 1 6.91 10.314.5.5 0 0 1 -.455.706z"/></g><g opacity=".66"><path d="m70.194 44.415a33.5 33.5 0 0 1 -2.075 6.3 34.629 34.629 0 0 1 -5.844 9.035 33.44 33.44 0 0 1 -4.9 4.479l-19.518-18.279 7.657-11.84z" fill="#d5d6db"/></g><g opacity=".66"><path d="m68.119 50.718a34.629 34.629 0 0 1 -5.844 9.035l-22.289-17.094 3.4-5.257z" fill="#e1e6e9"/></g><g opacity=".66"><path d="m3.806 29.585a33.5 33.5 0 0 1 2.075-6.3 34.629 34.629 0 0 1 5.844-9.035 33.44 33.44 0 0 1 4.9-4.479l19.518 18.279-7.657 11.84z" fill="#d5d6db"/></g><g opacity=".66"><path d="m5.881 23.282a34.629 34.629 0 0 1 5.844-9.035l22.289 17.094-3.4 5.257z" fill="#e1e6e9"/></g><circle cx="37" cy="37" fill="#9297ab" r="8.687"/><path d="m37 46.188a9.188 9.188 0 1 1 9.188-9.188 9.2 9.2 0 0 1 -9.188 9.188zm0-17.375a8.188 8.188 0 1 0 8.188 8.187 8.2 8.2 0 0 0 -8.188-8.187z" fill="#323c6b"/><circle cx="37" cy="37" fill="#fff" r="5.375"/><path d="m37 42.875a5.875 5.875 0 1 1 5.875-5.875 5.882 5.882 0 0 1 -5.875 5.875zm0-10.75a4.875 4.875 0 1 0 4.875 4.875 4.881 4.881 0 0 0 -4.875-4.875z" fill="#323c6b"/><path d="m37 71.5a34.5 34.5 0 1 1 34.5-34.5 34.54 34.54 0 0 1 -34.5 34.5zm0-68a33.5 33.5 0 1 0 33.5 33.5 33.538 33.538 0 0 0 -33.5-33.5z" fill="#323c6b"/></svg>